<?xml version="1.0" encoding="iso-8859-1"?>
<!-- Generator: Adobe Illustrator 17.1.0, SVG Export Plug-In . SVG Version: 6.00 Build 0)  -->
<!DOCTYPE svg PUBLIC "-//W3C//DTD SVG 1.1//EN" "http://www.w3.org/Graphics/SVG/1.1/DTD/svg11.dtd">
<svg version="1.1" id="Capa_1" xmlns="http://www.w3.org/2000/svg" xmlns:xlink="http://www.w3.org/1999/xlink" x="0px" y="0px"
	 viewBox="0 0 310.285 310.285" style="enable-background:new 0 0 310.285 310.285;" xml:space="preserve">
<path d="M155.143,0C69.597,0,0,69.596,0,155.142s69.597,155.143,155.143,155.143s155.143-69.597,155.143-155.143
	S240.689,0,155.143,0z M236.437,167.19l-65.64,42.901c-10.123,6.629-18.655,2.152-18.655-9.948v-21.171l-47.059,31.119
	c-10.123,6.629-17.941,2.152-17.941-9.948v-90c0-12.1,7.818-16.577,17.942-9.949l47.058,31.114v-21.165
	c0-12.1,8.532-16.577,18.655-9.949l65.763,42.894C246.684,149.715,246.56,160.561,236.437,167.19z"/>
<g>
</g>
<g>
</g>
<g>
</g>
<g>
</g>
<g>
</g>
<g>
</g>
<g>
</g>
<g>
</g>
<g>
</g>
<g>
</g>
<g>
</g>
<g>
</g>
<g>
</g>
<g>
</g>
<g>
</g>
</svg>
